PathFileType	4	(X/Y/Z)	s04c0001.trc
DataRate	CameraRate	NumFrames	NumMarkers	Units	OrigDataRate	OrigDataStartFrame	OrigNumFrames
200	200	5	49	mm	200	1750	2000
Frame#	Time	racr			lacr			c7			jug			rlel			rdr			llel			ldr			s2			lic			ric			lasi			rasi			rpsi			lpsi			rgt			lgt			rth1			rth2			rth3			rth4			rlfc			rmfc			rsh1			rsh2			rsh3			rsh4			rlmal			rmmal			rcal			rtoe			rmt5			rmt1			lth1			lth2			lth4			lth3			llfc			lmfc			lsh1			lsh2			lsh3			lsh4			llmal			lmmal			lcal			ltoe			lmt1			lmt5			
		X1	Y1	Z1	X2	Y2	Z2	X3	Y3	Z3	X4	Y4	Z4	X5	Y5	Z5	X6	Y6	Z6	X7	Y7	Z7	X8	Y8	Z8	X9	Y9	Z9	X10	Y10	Z10	X11	Y11	Z11	X12	Y12	Z12	X13	Y13	Z13	X14	Y14	Z14	X15	Y15	Z15	X16	Y16	Z16	X17	Y17	Z17	X18	Y18	Z18	X19	Y19	Z19	X20	Y20	Z20	X21	Y21	Z21	X22	Y22	Z22	X23	Y23	Z23	X24	Y24	Z24	X25	Y25	Z25	X26	Y26	Z26	X27	Y27	Z27	X28	Y28	Z28	X29	Y29	Z29	X30	Y30	Z30	X31	Y31	Z31	X32	Y32	Z32	X33	Y33	Z33	X34	Y34	Z34	X35	Y35	Z35	X36	Y36	Z36	X37	Y37	Z37	X38	Y38	Z38	X39	Y39	Z39	X40	Y40	Z40	X41	Y41	Z41	X42	Y42	Z42	X43	Y43	Z43	X44	Y44	Z44	X45	Y45	Z45	X46	Y46	Z46	X47	Y47	Z47	X48	Y48	Z48	X49	Y49	Z49	
1750	8.7500	183.038986	1562.858032	283.827698	201.489700	1553.812378	-82.600113	127.510826	1591.059692	85.402138	260.063660	1526.306274	97.352966	101.596916	1224.643555	380.525696	211.688568	981.253662	489.772491	159.333862	1235.957642	-187.188599	295.207123	974.456665	-263.412262	68.547157	1054.454956	98.408669	241.752380	1110.745850	-48.415199	207.097275	1101.063354	274.526306	290.124268	1055.521362	5.244656	272.155975	1059.507324	232.803116	86.384918	1089.179321	143.426636	87.239510	1084.949951	64.318146	170.687958	1000.710022	278.403259	193.283890	955.773926	-67.043121	184.472366	865.326050	299.969513	198.385651	778.533752	289.817566	170.429123	698.694153	280.021393	234.167953	777.573792	279.650055	154.395966	548.129639	249.667267	161.411774	525.771790	139.505066	105.570450	425.999298	268.137360	121.610649	336.527679	259.948151	88.759796	257.383026	243.135910	157.763672	335.840179	245.856033	89.206741	103.418968	231.608002	138.456741	111.545563	159.416626	48.201042	68.342827	168.064468	314.100372	83.226158	304.822815	232.243362	52.716003	326.722382	279.408936	49.887745	227.749619	195.916336	862.233826	-79.941444	214.401276	777.251404	-77.699341	249.679428	775.597351	-67.455055	187.411957	692.500732	-72.235527	165.115768	552.042542	-53.627182	190.088242	522.187012	50.904751	148.371902	424.110657	-80.297928	170.862198	340.327484	-67.934120	147.542709	254.348663	-67.669525	200.097015	341.738251	-41.711323	146.768951	104.782845	-63.846783	154.835831	100.216179	21.965197	80.102066	77.329407	-14.544076	377.019714	82.860146	-57.723331	312.873474	54.968781	0.000274	302.242279	43.134151	-111.001183	
1751	8.7550	182.981369	1562.837646	283.836914	201.473618	1553.834106	-82.576698	127.478897	1591.054321	85.431007	260.044983	1526.296143	97.388084	101.552231	1224.585327	380.510315	211.675873	981.222046	489.771027	159.402267	1235.956665	-187.191620	295.298584	974.462158	-263.384155	68.563110	1054.506592	98.396622	241.743179	1110.726440	-48.426052	207.063248	1101.067749	274.525726	290.122498	1055.527222	5.227046	272.184052	1059.517822	232.784607	86.379669	1089.196533	143.415390	87.240517	1084.955078	64.321419	170.704437	1000.707581	278.395966	193.279114	955.789307	-67.057358	184.465286	865.317017	299.966278	198.397583	778.541870	289.801147	170.446808	698.686157	280.006775	234.171722	777.554810	279.626373	154.393097	548.137573	249.653656	161.407974	525.794006	139.480545	105.567459	425.997559	268.129761	121.602013	336.516846	259.943451	88.747566	257.382843	243.146942	157.788696	335.854675	245.860519	89.214127	103.426262	231.606049	138.457642	111.530624	159.416748	48.204460	68.331406	168.075302	314.095062	83.212166	304.812225	232.246552	52.706921	326.727600	279.407623	49.900669	227.746078	195.910675	862.237915	-79.939125	214.401276	777.251709	-77.699173	249.659683	775.593018	-67.478653	187.406708	692.510010	-72.245850	165.100098	552.046753	-53.635174	190.071365	522.166504	50.893379	148.372498	424.092804	-80.291328	170.857330	340.319611	-67.938072	147.539871	254.344864	-67.668625	200.092300	341.721893	-41.724258	146.787903	104.763588	-63.839962	154.836258	100.215927	21.964876	80.105278	77.343674	-14.535017	377.019196	82.861877	-57.740387	312.883331	54.970989	-0.012335	302.266937	43.100243	-110.982475	
1752	8.7600	182.909958	1562.795532	283.849030	201.461212	1553.831299	-82.551033	127.453156	1591.078247	85.426544	260.001282	1526.292847	97.409515	101.521736	1224.542969	380.489380	211.671219	981.199951	489.740692	159.424286	1235.958618	-187.178986	295.370758	974.484558	-263.376373	68.554543	1054.498047	98.388107	241.753677	1110.737549	-48.432831	207.049820	1101.041016	274.509003	290.109741	1055.499756	5.244901	272.171570	1059.495605	232.759888	86.395340	1089.194702	143.421600	87.258049	1084.950439	64.301865	170.713562	1000.691101	278.379333	193.265701	955.777100	-67.069748	184.476883	865.322449	299.951385	198.397232	778.547241	289.800415	170.440933	698.675903	279.990967	234.162766	777.559265	279.629639	154.394211	548.135559	249.655441	161.390259	525.775146	139.478943	105.576607	425.997681	268.118591	121.588646	336.533112	259.922119	88.758469	257.390137	243.137421	157.788757	335.854340	245.853943	89.204849	103.422386	231.620605	138.470718	111.531113	159.424667	48.209900	68.334923	168.070572	314.102814	83.208618	304.824677	232.226273	52.698944	326.729523	279.420715	49.889351	227.755127	195.888351	862.224243	-79.951134	214.380112	777.256775	-77.722755	249.644867	775.607971	-67.502686	187.373901	692.499268	-72.251602	165.089890	552.052429	-53.647667	190.064514	522.184753	50.891869	148.356064	424.092377	-80.305473	170.849594	340.312653	-67.946732	147.526367	254.341339	-67.669151	200.084579	341.714935	-41.720535	146.781754	104.758835	-63.839695	154.836258	100.215927	21.964872	80.100609	77.341087	-14.537601	377.019196	82.861893	-57.740383	312.888855	54.983780	-0.005876	302.235809	43.127090	-111.006393	
1753	8.7650	182.842102	1562.769409	283.844635	201.438797	1553.840942	-82.535683	127.421234	1591.060303	85.422516	259.968445	1526.281982	97.413742	101.499611	1224.476685	380.465332	211.677872	981.174500	489.729218	159.470566	1235.965088	-187.194366	295.458038	974.502014	-263.336212	68.554604	1054.504272	98.384789	241.730606	1110.733643	-48.451012	207.058701	1101.048096	274.493622	290.108887	1055.525269	5.215870	272.174988	1059.512695	232.760452	86.390968	1089.207153	143.404327	87.265167	1084.954956	64.299919	170.701233	1000.698242	278.372131	193.257385	955.785767	-67.069336	184.489624	865.336914	299.933990	198.383835	778.534790	289.778198	170.428757	698.679993	279.989136	234.179642	777.554565	279.602173	154.388199	548.143921	249.657547	161.392822	525.776123	139.467010	105.578850	426.008453	268.108154	121.595619	336.513031	259.912323	88.758766	257.395660	243.143234	157.781357	335.848267	245.846664	89.201729	103.417572	231.612076	138.457138	111.533630	159.412628	48.202282	68.343140	168.058853	314.101654	83.215485	304.814941	232.250641	52.707310	326.723053	279.403229	49.886486	227.750000	195.865280	862.237183	-79.956886	214.347794	777.258606	-77.731758	249.630859	775.598328	-67.500168	187.356232	692.502197	-72.253876	165.069580	552.042664	-53.658688	190.037964	522.169495	50.887882	148.324631	424.091370	-80.310257	170.833298	340.318542	-67.945740	147.504868	254.335968	-67.689545	200.083206	341.713379	-41.728394	146.781784	104.764709	-63.847546	154.836258	100.215927	21.964869	80.100349	77.328865	-14.542386	376.996216	82.858269	-57.742279	312.898590	54.969227	0.002881	302.265320	43.129333	-110.992828	
1754	8.7700	182.750061	1562.743652	283.878540	201.425674	1553.848999	-82.535797	127.389755	1591.048340	85.436348	259.936157	1526.270386	97.436569	101.463814	1224.436035	380.436249	211.666641	981.130676	489.704803	159.502731	1235.971802	-187.199600	295.542755	974.513977	-263.319702	68.552612	1054.517090	98.384483	241.737900	1110.738770	-48.435513	207.036880	1101.062256	274.488068	290.108093	1055.503296	5.216292	272.167877	1059.499512	232.746368	86.394508	1089.201904	143.389038	87.276314	1084.953125	64.300720	170.691330	1000.711243	278.370239	193.242188	955.783264	-67.086906	184.479935	865.322144	299.933624	198.380280	778.545776	289.777100	170.425812	698.674011	279.983978	234.153488	777.549072	279.600128	154.378479	548.147888	249.636337	161.388336	525.785645	139.465179	105.569908	426.007507	268.107788	121.595215	336.526337	259.925751	88.739937	257.389099	243.136337	157.762711	335.851257	245.852020	89.207642	103.423492	231.619110	138.451508	111.532310	159.417801	48.193069	68.339966	168.067047	314.097565	83.207062	304.822357	232.240280	52.706757	326.728973	279.409454	49.881001	227.748672	195.858261	862.237976	-79.961815	214.347778	777.258972	-77.731583	249.623154	775.594421	-67.486328	187.329697	692.508484	-72.267288	165.049835	552.041382	-53.647335	190.037262	522.178650	50.888622	148.313126	424.101868	-80.294006	170.826248	340.312347	-67.946754	147.518478	254.340607	-67.691696	200.068832	341.720398	-41.729107	146.756393	104.781433	-63.869267	154.826797	100.212662	21.954580	80.110275	77.322350	-14.537962	377.004181	82.866928	-57.735195	312.888916	54.974106	-0.008224	302.258270	43.119133	-110.996109	
